<?xml version="1.0" encoding="utf-8"?>
<!-- Generator: Adobe Illustrator 19.0.0, SVG Export Plug-In . SVG Version: 6.00 Build 0)  -->
<svg version="1.1" id="layer" xmlns="http://www.w3.org/2000/svg" xmlns:xlink="http://www.w3.org/1999/xlink" x="0px" y="0px"
	 viewBox="-153 -46 652 652" style="enable-background:new -153 -46 652 652;" xml:space="preserve">
<path d="M80.2,359.9c-3.6-1.6-10.2-2.4-19.9-2.4h-8.8v24.9h10c7.8,0,13.3-0.4,16.3-1.2c3.1-0.8,5.5-2.2,7.2-4.1
	c1.7-1.9,2.6-4.2,2.6-6.9C87.6,365.5,85.1,362.1,80.2,359.9 M169,25.1C30.9,25.1-81,137-81,275.1c0,78.1,35.8,147.8,91.9,193.6v0h0
	h51.3v-53.1c10.7-0.2,18.5-0.8,24.5-2c11.7-2.5,21.9-7.1,29.6-14.4c5.5-5,9.3-11.5,11.1-18.6v37.8c-2.8,3.8-5.7,7.8-8.7,11.7
	c-6.9,9.3-13.9,18.9-20.7,28c-2.4,3.3-4.8,6.5-7.1,9.6c-3.4,4.6-6.7,9-9.7,13.2c-6.4,8.7-12,16.2-15.9,21.6
	C96.9,517,132,525.1,169,525.1c138.1,0,250-111.9,250-250C419,137,307.1,25.1,169,25.1 M210.2,48.3c-30.5,39.8-12.6,61,44.8,108.1
	c81.1,66.7,19.8,148.7-44,152c56.2-42.9,66-89.9-4.5-141.4C146.9,123.3,168.3,75.7,210.2,48.3 M156.4,66.6
	c-33.8,43.9-9.6,87.7,24.5,112.6c32.9,24.1,93.6,79.6-0.7,115.7c21.8-17.8,50.8-54.2-35.3-104.5C94.4,160.8,99,99.4,156.4,66.6
	 M112.1,84.7c-40.8,31.3-36.6,98.4,11.8,125.1c79.9,44.1,59.3,86.7-14.5,43.3C35.6,209.7,28.8,123.2,112.1,84.7 M108.9,391.3
	c-6,5.6-14.2,9.5-24.5,11.7c-6,1.3-17.1,1.9-33.1,1.9v54.9H20V335h33.3c18,0,31,1.2,38.9,3.7c7.9,2.4,14.2,6.4,18.8,11.9
	c4.6,5.5,6.9,12,6.9,19.7C117.9,378.7,114.9,385.7,108.9,391.3 M127.4,359.3c-1.5-5.8-4.2-11.2-8.1-15.7
	c-6.1-7.3-14.4-12.4-23.9-15.3c-5.8-1.7-12.8-2.8-21.1-3.4c1.3-3,2.3-5.1,2.8-6.4c0.4-0.8,0.6-1.3,0.6-1.3l12.4-55.3l107.1,63.4
	c-7.3-0.7-15.8-1.1-25.8-1.1h-44.1V359.3z M227,391.3c-6,5.6-14.2,9.5-24.5,11.7c-6,1.3-17.1,1.9-33,1.9v54.9h-31.4V335h33.3
	c18,0,31,1.2,38.9,3.7c7.9,2.4,14.2,6.4,18.8,11.9c4.6,5.5,6.9,12,6.9,19.7C236,378.7,233,385.7,227,391.3 M331.8,449.7
	c-9.3,6.5-21.5,9.7-36.5,9.7c-11.7,0-22-2.1-30.7-6.4c-8.7-4.2-16.2-10.9-22.4-20l26.4-11.7c7.9,10.7,17,16.1,27.4,16.1
	c5.4,0,9.9-1.1,13.6-3.5c3.7-2.3,5.5-5,5.5-8c0-2.8-1.4-5.5-4.2-8.2c-2.8-2.8-8.9-7-18.3-12.6c-18-10.8-29.5-19.1-34.8-25
	c-5.2-5.9-7.8-11.7-7.8-17.5c0-8.4,4.4-15.7,13.1-21.7c8.7-6,19.4-9,32.2-9c8.2,0,16,1.4,23.5,4.2c7.4,2.8,15.5,7.9,24.2,15.4
	l-23.2,15.1c-8.2-8.4-16.5-12.5-24.9-12.5c-4.1,0-7.5,0.8-10.1,2.4c-2.6,1.6-3.9,3.4-3.9,5.5c0,2,0.9,4,2.8,5.8
	c2.5,2.4,10.2,7.6,23,15.6c12,7.4,19.2,12,21.8,14c6.4,4.7,10.9,9.3,13.5,13.6c2.7,4.3,4,9,4,14.1
	C345.8,435,341.1,443.2,331.8,449.7 M198.3,359.9c-3.6-1.6-10.2-2.4-19.9-2.4h-8.8v24.9h10c7.8,0,13.3-0.4,16.3-1.2
	c3.1-0.8,5.5-2.2,7.2-4.1c1.8-1.9,2.6-4.2,2.6-6.9C205.7,365.5,203.2,362.1,198.3,359.9"/>
</svg>
